<svg width="456" height="365" viewBox="0 0 456 365" fill="none" xmlns="http://www.w3.org/2000/svg">
<ellipse cx="279" cy="353" rx="95" ry="12" fill="black" fill-opacity="0.5"/>
<rect x="318.196" y="255.056" width="45.0309" height="92.9437" rx="3.51536" fill="#00ADB5" stroke="black" stroke-width="1.64486" stroke-linejoin="round"/>
<rect x="200.395" y="281.895" width="45.0309" height="66.1053" rx="3.51536" fill="#EEEEEE" stroke="black" stroke-width="1.64486" stroke-linejoin="round"/>
<rect x="409.338" y="152.026" width="45.0309" height="195.974" rx="3.51536" fill="#00ADB5" stroke="black" stroke-width="1.64486" stroke-linejoin="round"/>
<path d="M260.169 128.168L306.468 128.168C306.468 128.168 299.089 195.602 289.046 206.658C279.004 217.713 226.445 248.034 226.445 248.034L208.744 237.17L241.742 185.203C241.742 185.203 238.113 164.938 260.169 128.168Z" fill="#00ADB5" stroke="black" stroke-width="1.39887"/>
<path d="M227.193 247.426L208.744 237.173L199.407 247.226C199.407 247.226 215.147 256.349 226.129 259.925L221.478 253.79L227.193 247.426Z" fill="#EEEEEE" stroke="black" stroke-width="1.39887" stroke-linejoin="round"/>
<path d="M260.366 127.186L310.954 127.119C310.954 127.119 339.075 151.849 342.618 166.358C346.161 180.868 342.121 233.524 342.121 233.524L321.675 242.564L300.567 186.947C300.567 186.947 278.498 166.041 260.366 127.186Z" fill="#00ADB5"/>
<path d="M260.366 127.186L260.365 126.487C260.126 126.487 259.904 126.609 259.776 126.811C259.648 127.012 259.631 127.265 259.732 127.482L260.366 127.186ZM310.954 127.119L311.415 126.594L311.217 126.42L310.953 126.42L310.954 127.119ZM342.121 233.524L342.403 234.164L342.786 233.995L342.818 233.578L342.121 233.524ZM321.675 242.564L321.021 242.812L321.283 243.502L321.958 243.204L321.675 242.564ZM300.567 186.947L301.221 186.698L301.164 186.549L301.048 186.439L300.567 186.947ZM260.367 127.885L310.954 127.819L310.953 126.42L260.365 126.487L260.367 127.885ZM341.838 232.885L321.392 241.924L321.958 243.204L342.403 234.164L341.838 232.885ZM322.329 242.316L301.221 186.698L299.913 187.195L321.021 242.812L322.329 242.316ZM300.567 186.947C301.048 186.439 301.048 186.439 301.048 186.439C301.048 186.439 301.048 186.439 301.047 186.438C301.047 186.438 301.046 186.437 301.045 186.436C301.042 186.434 301.039 186.43 301.034 186.425C301.024 186.416 301.009 186.401 300.988 186.382C300.947 186.342 300.886 186.282 300.804 186.203C300.641 186.043 300.398 185.802 300.081 185.481C299.448 184.839 298.521 183.877 297.351 182.6C295.011 180.047 291.698 176.234 287.82 171.209C280.062 161.16 270.04 146.263 261 126.89L259.732 127.482C268.824 146.964 278.903 161.948 286.712 172.064C290.617 177.123 293.955 180.965 296.32 183.545C297.502 184.836 298.441 185.81 299.085 186.464C299.408 186.79 299.656 187.037 299.825 187.202C299.91 187.285 299.974 187.347 300.018 187.389C300.04 187.41 300.056 187.426 300.068 187.437C300.073 187.443 300.078 187.447 300.081 187.45C300.082 187.451 300.083 187.452 300.084 187.453C300.085 187.453 300.085 187.454 300.085 187.454C300.086 187.454 300.086 187.454 300.567 186.947ZM310.954 127.119C310.492 127.645 310.492 127.645 310.492 127.645C310.492 127.645 310.492 127.645 310.493 127.645C310.493 127.646 310.495 127.647 310.496 127.649C310.5 127.652 310.504 127.656 310.511 127.662C310.524 127.673 310.544 127.691 310.57 127.714C310.623 127.761 310.702 127.831 310.804 127.922C311.01 128.106 311.312 128.377 311.699 128.728C312.471 129.43 313.58 130.449 314.922 131.718C317.607 134.257 321.222 137.791 324.946 141.775C328.672 145.762 332.497 150.189 335.608 154.514C338.729 158.855 341.086 163.032 341.939 166.524L343.298 166.192C342.379 162.43 339.892 158.075 336.744 153.698C333.585 149.306 329.716 144.83 325.968 140.82C322.219 136.809 318.582 133.254 315.883 130.702C314.534 129.426 313.418 128.4 312.639 127.692C312.25 127.339 311.944 127.065 311.736 126.879C311.632 126.786 311.552 126.715 311.498 126.667C311.471 126.643 311.451 126.625 311.437 126.613C311.43 126.607 311.425 126.602 311.421 126.599C311.419 126.597 311.418 126.596 311.417 126.595C311.416 126.595 311.416 126.595 311.416 126.594C311.416 126.594 311.415 126.594 310.954 127.119ZM341.939 166.524C342.804 170.067 343.216 176.007 343.336 182.986C343.455 189.945 343.282 197.873 342.999 205.356C342.716 212.837 342.322 219.867 341.999 225.026C341.837 227.606 341.693 229.718 341.59 231.184C341.538 231.918 341.496 232.49 341.468 232.878C341.453 233.072 341.442 233.221 341.435 233.32C341.431 233.37 341.428 233.408 341.426 233.433C341.425 233.446 341.424 233.455 341.424 233.462C341.424 233.465 341.424 233.467 341.423 233.469C341.423 233.469 341.423 233.47 341.423 233.47C341.423 233.471 341.423 233.471 342.121 233.524C342.818 233.578 342.818 233.578 342.818 233.577C342.818 233.577 342.818 233.576 342.818 233.575C342.818 233.574 342.819 233.571 342.819 233.568C342.819 233.562 342.82 233.552 342.821 233.539C342.823 233.514 342.826 233.476 342.83 233.425C342.837 233.325 342.848 233.176 342.863 232.981C342.891 232.591 342.933 232.018 342.985 231.283C343.089 229.813 343.233 227.698 343.395 225.114C343.718 219.947 344.113 212.905 344.397 205.409C344.681 197.914 344.854 189.957 344.734 182.962C344.615 175.988 344.204 169.904 343.298 166.192L341.939 166.524Z" fill="black"/>
<path fill-rule="evenodd" clip-rule="evenodd" d="M304.736 44.6845C305.886 44.2647 306.982 43.6512 307.982 42.7993C315.53 36.3689 312.293 26.6671 307.726 21.6161C303.158 16.5652 275.214 18.5799 288.396 41.9789C288.451 42.0123 288.508 42.046 288.566 42.0798C290.039 46.7694 288.796 50.7917 287.305 55.6179C286.697 57.5864 286.047 59.6885 285.524 62.0242L299.505 61.0225C303.347 55.8045 304.804 50.5447 304.736 44.6845Z" fill="#F5B9AB"/>
<path d="M307.982 42.7993L308.515 43.4253L308.515 43.4253L307.982 42.7993ZM304.736 44.6845L304.454 43.9119C304.126 44.0315 303.909 44.3451 303.913 44.6941L304.736 44.6845ZM307.726 21.6161L307.116 22.1678L307.726 21.6161ZM288.396 41.9789L287.679 42.3825C287.749 42.5064 287.85 42.61 287.972 42.6834L288.396 41.9789ZM288.566 42.0798L289.35 41.8332C289.289 41.6388 289.158 41.4739 288.982 41.3707L288.566 42.0798ZM287.305 55.6179L288.091 55.8607L288.091 55.8607L287.305 55.6179ZM285.524 62.0242L284.721 61.8444C284.665 62.0982 284.731 62.3639 284.901 62.5609C285.07 62.758 285.323 62.8632 285.583 62.8446L285.524 62.0242ZM299.505 61.0225L299.563 61.8428C299.804 61.8256 300.024 61.704 300.167 61.5102L299.505 61.0225ZM307.449 42.1733C306.528 42.9578 305.519 43.5235 304.454 43.9119L305.017 45.4571C306.254 45.006 307.436 44.3446 308.515 43.4253L307.449 42.1733ZM307.116 22.1678C309.304 24.5874 311.166 28.1203 311.58 31.7828C311.99 35.4075 310.988 39.1576 307.449 42.1733L308.515 43.4253C312.524 40.0106 313.678 35.6946 313.214 31.598C312.755 27.5393 310.715 23.6958 308.336 21.0645L307.116 22.1678ZM289.112 41.5752C285.872 35.8237 285.243 31.5317 286.011 28.4121C286.774 25.3147 288.959 23.1962 291.756 21.8721C294.565 20.5426 297.934 20.0475 300.883 20.1978C302.353 20.2728 303.695 20.5073 304.788 20.8632C305.897 21.2242 306.681 21.6867 307.116 22.1678L308.336 21.0645C307.629 20.2828 306.539 19.7034 305.297 19.2991C304.04 18.8899 302.552 18.6359 300.966 18.5551C297.803 18.3938 294.153 18.9178 291.053 20.3854C287.941 21.8586 285.326 24.3153 284.414 28.0188C283.508 31.7001 284.329 36.4346 287.679 42.3825L289.112 41.5752ZM288.982 41.3707C288.927 41.3383 288.873 41.3062 288.82 41.2744L287.972 42.6834C288.03 42.7184 288.089 42.7536 288.149 42.7889L288.982 41.3707ZM288.091 55.8607C289.572 51.069 290.912 46.8029 289.35 41.8332L287.781 42.3264C289.167 46.7359 288.021 50.5144 286.519 55.3751L288.091 55.8607ZM286.326 62.2041C286.842 59.9046 287.482 57.8319 288.091 55.8607L286.519 55.3751C285.912 57.3409 285.253 59.4725 284.721 61.8444L286.326 62.2041ZM299.446 60.2022L285.465 61.2039L285.583 62.8446L299.563 61.8428L299.446 60.2022ZM303.913 44.6941C303.98 50.3888 302.572 55.471 298.842 60.5348L300.167 61.5102C304.123 56.1379 305.629 50.7006 305.558 44.6749L303.913 44.6941Z" fill="black"/>
<path d="M285.888 27.849C283.7 30.8927 286.056 38.4101 287.795 40.2904C273.389 32.2969 282.509 14.2617 286.954 17.5506C287.678 10.8827 295.329 8.53014 300.545 14.1694C313.622 3.60921 314.31 21.6034 309.694 24.3399C305.079 27.0764 299.479 24.4704 296.573 25.8816C293.667 27.2927 291.873 35.8404 290.932 31.0963C289.991 26.3521 288.622 24.0444 285.888 27.849Z" fill="#00ADB5" stroke="black" stroke-width="1.64486"/>
<path d="M312.642 128.265C327.721 118.236 321.428 83.5812 319.283 73.7283C318.897 71.9556 318.326 70.255 317.632 68.5786C311.933 54.8001 297.871 43.7023 284.404 50.1027C255.718 63.7357 259.983 107.223 260.253 128.591L312.642 128.265Z" fill="#EEEEEE" stroke="black" stroke-width="1.64486" stroke-linejoin="round"/>
<path d="M357.997 81.3723L345.895 66.6031L305.116 95.1334L291.936 68.604L274.87 95.1332C274.87 95.1332 293.358 123.848 302.75 123.014C319.866 121.493 357.997 81.3723 357.997 81.3723Z" fill="#EEEEEE"/>
<path d="M292.839 70.5398L305.001 94.3189L345.894 66.6035L357.997 81.3728C357.997 81.3728 322.051 121.245 301.045 123.111C294.434 123.699 275.173 94.8459 275.173 94.8459" stroke="black" stroke-width="1.64486"/>
<path d="M349.919 63.938L345.125 67.0145L357.158 82.2598L360.942 79.1938C364.969 75.9317 365.607 70.0309 362.371 65.9837C359.356 62.214 353.981 61.3309 349.919 63.938Z" fill="#F5B9AB" stroke="black" stroke-width="1.64486" stroke-linejoin="round"/>
<path d="M342.369 231.606L321.675 242.395L325.235 255.877L352.866 238.861L344.735 239.965L342.369 231.606Z" fill="#EEEEEE" stroke="black" stroke-width="1.39887" stroke-linejoin="round"/>
<path d="M5.72367 108.274C12.4911 96.0548 18.8881 79.6725 35.6123 84.1538C43.5593 86.2832 49.7344 98.1295 49.2487 105.662C48.8457 111.909 50.5811 119.8 44.1332 123.69C39.0686 126.746 32.6683 126.312 28.6745 121.582C17.3328 108.149 38.2904 98.7371 48.6826 100.792C62.8673 103.597 79.3042 138.937 66.9494 150.098C56.3564 159.668 49.3867 144.982 56.7858 136.272C67.1942 124.019 76.7683 123.63 88.8718 136.735C98.3223 146.968 95.4801 165.028 87.8549 174.529C86.2712 176.503 80.3438 190.315 78.9126 188.93C64.7901 175.266 89.81 155.134 103.713 157.996C119.687 161.285 135.813 164.795 146.371 177.439C152.049 184.238 162.529 208.563 160.515 199.936C157.995 189.141 155.576 174.327 160.05 163.575C161.382 160.376 165.386 150.057 162.005 160.073C158.523 170.389 155.216 179.394 153.799 189.637C153.484 191.916 156.446 195.15 157.457 197.083C158.313 198.721 151.649 196.617 150.853 196.534C143.977 195.82 137.693 198.468 131.802 201.759C126.544 204.697 120.526 210.21 116.561 208.25" stroke="#00ADB5" stroke-opacity="0.2" stroke-width="4" stroke-linecap="round" stroke-linejoin="round"/>
</svg>
